#define image_width  9
#define image_height 9
static unsigned char image_bits[] = {
 0x00,0xfe,0x80,0xfe,0x44,0xfe,0x28,0xfe,0x10,0xfe,0x28,0xfe,
 0x44,0xfe,0x02,0xfe,0x00,0xfe};
