#define image_width  9
#define image_height 9
static unsigned char image_bits[] = {
 0x00,0xfe,0x80,0xfe,0x40,0xfe,0x20,0xfe,0x00,0xfe,0x08,0xfe,
 0x04,0xfe,0x02,0xfe,0x00,0xfe};
